<svg width="50" height="38" viewBox="0 0 50 38" fill="none" xmlns="http://www.w3.org/2000/svg">
<path d="M42.3548 3.18249C39.1182 1.69575 35.6575 0.615248 32.0394 0C31.595 0.788725 31.0759 1.84958 30.718 2.69348C26.8719 2.12561 23.0611 2.12561 19.2857 2.69348C18.9279 1.84958 18.397 0.788725 17.9487 0C14.3267 0.615248 10.862 1.69972 7.6254 3.19036C1.09717 12.8757 -0.672523 22.3205 0.212326 31.6312C4.54219 34.8057 8.73835 36.7342 12.8637 37.9961C13.8823 36.6198 14.7907 35.1567 15.5733 33.6148C14.0828 33.0588 12.6553 32.3726 11.3064 31.576C11.6643 31.3157 12.0143 31.0436 12.3525 30.7636C20.5796 34.5415 29.5185 34.5415 37.6474 30.7636C37.9895 31.0436 38.3395 31.3157 38.6934 31.576C37.3406 32.3765 35.9091 33.0627 34.4187 33.6188C35.2012 35.1567 36.1058 36.6238 37.1282 38C41.2576 36.7381 45.4576 34.8097 49.7875 31.6312C50.8257 20.8377 48.0139 11.4797 42.3548 3.18249ZM16.6941 25.9052C14.2244 25.9052 12.1991 23.6416 12.1991 20.885C12.1991 18.1285 14.1812 15.861 16.6941 15.861C19.2071 15.861 21.2324 18.1245 21.1892 20.885C21.1931 23.6416 19.2071 25.9052 16.6941 25.9052ZM33.3057 25.9052C30.836 25.9052 28.8107 23.6416 28.8107 20.885C28.8107 18.1285 30.7927 15.861 33.3057 15.861C35.8187 15.861 37.844 18.1245 37.8008 20.885C37.8008 23.6416 35.8187 25.9052 33.3057 25.9052Z" fill="#5865F2"/>
</svg>
